<?xml version="1.0" standalone="no"?>
<!DOCTYPE svg PUBLIC "-//W3C//DTD SVG 20010904//EN"
 "http://www.w3.org/TR/2001/REC-SVG-20010904/DTD/svg10.dtd">
<svg version="1.0" xmlns="http://www.w3.org/2000/svg"
 width="2560.000000pt" height="1189.000000pt" viewBox="0 0 2560.000000 1189.000000"
 preserveAspectRatio="xMidYMid meet">

<g transform="translate(0.000000,1189.000000) scale(0.100000,-0.100000)"
fill="#000000" stroke="none">
<path d="M17 11873 c-4 -3 -7 -2672 -7 -5930 l0 -5923 12790 0 12790 0 -2
5928 -3 5927 -12781 3 c-7029 1 -12784 -1 -12787 -5z m3928 -3095 c2 -13 140
-912 305 -1998 166 -1086 304 -1992 307 -2012 4 -29 10 -38 25 -38 20 0 20 9
14 843 -3 463 -9 1379 -12 2035 l-6 1192 266 0 266 0 0 -2449 0 -2449 -37 -6
c-21 -3 -195 -22 -388 -41 -192 -20 -376 -38 -407 -42 -54 -5 -57 -4 -62 18
-7 30 -586 3783 -586 3798 0 6 -9 11 -20 11 -20 0 -20 -4 -14 -452 12 -994 32
-3433 28 -3440 -3 -4 -20 -8 -37 -8 -18 -1 -130 -13 -250 -28 -120 -15 -220
-26 -222 -23 -3 2 -5 1153 -5 2558 l0 2553 415 0 415 0 5 -22z m4045 -213 l0
-235 -330 0 -330 0 0 -840 0 -840 330 0 330 0 0 -235 0 -235 -330 0 -330 0 0
-820 c0 -774 1 -820 18 -820 9 0 143 9 297 20 154 11 295 20 313 20 l32 0 0
-235 0 -235 -32 0 c-28 0 -704 -43 -1050 -66 l-98 -7 0 2382 0 2381 590 0 590
0 0 -235z m2930 0 l0 -235 -280 0 -280 0 -2 -2052 -3 -2053 -195 -7 c-107 -4
-221 -8 -252 -10 l-58 -3 -2 2060 -3 2060 -277 3 -278 2 0 235 0 235 815 0
815 0 0 -235z m2720 0 l0 -235 -330 0 -330 0 0 -841 0 -842 330 5 330 6 0
-239 0 -239 -330 0 -330 0 0 -960 0 -960 -260 0 -260 0 0 2270 0 2270 590 0
590 0 0 -235z m2140 -1830 c0 -1645 3 -2065 13 -2065 44 0 498 -21 570 -26
l87 -6 0 -234 0 -234 -37 5 c-21 2 -231 12 -468 21 -236 8 -486 19 -555 22
l-125 7 -3 2288 -2 2287 260 0 260 0 0 -2065z m2620 -305 l0 -2370 -72 6 c-40
3 -154 11 -253 17 l-180 12 -3 2353 -2 2352 255 0 255 0 0 -2370z m2409 1487
c80 -485 147 -895 151 -912 3 -16 13 -31 21 -33 13 -2 20 24 39 143 12 81 77
492 144 913 l121 767 289 3 289 2 -6 -27 c-2 -16 -101 -539 -218 -1163 l-213
-1135 215 -1375 c168 -1078 212 -1376 201 -1378 -11 -3 -584 57 -588 62 -1 0
-61 487 -133 1081 -156 1272 -139 1155 -160 1155 -14 0 -35 -147 -154 -1073
-76 -589 -141 -1079 -145 -1087 -6 -14 -36 -13 -277 10 l-270 25 3 30 c2 17
98 611 212 1322 l209 1292 -220 1125 c-120 618 -219 1127 -219 1130 0 3 127 6
283 6 l282 0 144 -883z"/>
</g>
</svg>
